<svg id="Layer_1" data-name="Layer 1" xmlns="http://www.w3.org/2000/svg" viewBox="0 0 200 83"><defs><style>.cls-1{fill:#0058b3;}.cls-2,.cls-4{fill:#001b87;}.cls-3{fill:#00a6d7;}.cls-4{font-size:29.3px;font-family:SegoeUIBlack, Segoe UI;}</style></defs><path class="cls-1" d="M90.9,5.48,91.41,36,88,33.17l-.21-.11L68.15,48.45l1.76-25.57-4.16-.83ZM73.58,38.59,84.92,27.76l-2.33-6.9L76,23.1Z"/><path class="cls-2" d="M32.56,7.28l26.5,15.18L54.89,23.9l-.2.13L57.85,48.8,36.77,34.22l-2.83,3.15ZM52.15,39.09l-3.5-15.28-7.13-1.52-1.44,6.8Z"/><path class="cls-3" d="M3.13,56,30.47,42.41l-1.12,4.27v.24L51.71,58,27.88,67.48l1,4.11Zm37.34,1.36L25.81,51.83l-5.22,5.08,4.85,5Z"/><text class="cls-4" transform="translate(50.91 68.65) rotate(-0.06)">Cyrosol</text></svg>