<svg xmlns="http://www.w3.org/2000/svg" width="536.323" height="197.503" viewBox="0 0 536.323 197.503"><defs><style>.a{fill:#0058b3;}.b,.d{fill:#001b87;}.c{fill:#00a6d7;}.d{font-size:82px;font-family:SegoeUIBlack, Segoe UI;letter-spacing:0.2em;}</style></defs><g transform="translate(-89 -57)"><path class="a" d="M824.107,125.211l1.432,85.9-9.494-8.008-.6-.312-55.33,43.272,4.939-71.919-11.708-2.324Zm-48.715,93.107,31.895-30.446-6.573-19.4-18.495,6.288Z" transform="translate(-488.23 -68.211)"/><path class="b" d="M507.1,138.569l74.553,42.684-11.736,4.065-.574.353,8.9,69.676-59.284-41.014-7.983,8.873Zm55.112,89.469-9.86-42.977-20.036-4.272-4.051,19.11Z" transform="translate(-335.333 -76.505)"/><path class="c" d="M288.767,437.494l76.891-38.311L362.524,411.2l-.025.673,62.893,31.279-67.025,26.538,2.948,11.566Zm105.012,3.832-41.219-15.659L337.883,439.96l13.645,13.979Z" transform="translate(-199.767 -238.322)"/><text class="d" transform="translate(223.303 233.503) rotate(-0.056)"><tspan x="0" y="0">Cyrosol</tspan></text></g></svg>